<svg xmlns="http://www.w3.org/2000/svg" xmlns:xlink="http://www.w3.org/1999/xlink" width="1060" zoomAndPan="magnify" viewBox="0 0 794.88 466.499986" height="622" preserveAspectRatio="xMidYMid meet" version="1.0"><defs><filter x="0%" y="0%" width="100%" height="100%" id="12ce5f483b"><feColorMatrix values="0 0 0 0 1 0 0 0 0 1 0 0 0 0 1 0 0 0 1 0" color-interpolation-filters="sRGB"/></filter><clipPath id="ed0282664b"><path d="M 0.859375 0.265625 L 466.328125 0.265625 L 466.328125 465.734375 L 0.859375 465.734375 Z M 0.859375 0.265625 " clip-rule="nonzero"/></clipPath><clipPath id="645142aa62"><path d="M 233.59375 0.265625 C 105.058594 0.265625 0.859375 104.464844 0.859375 233 C 0.859375 361.535156 105.058594 465.734375 233.59375 465.734375 C 362.128906 465.734375 466.328125 361.535156 466.328125 233 C 466.328125 104.464844 362.128906 0.265625 233.59375 0.265625 Z M 233.59375 0.265625 " clip-rule="nonzero"/></clipPath><clipPath id="0648b9dd71"><path d="M 0.859375 0.265625 L 466.113281 0.265625 L 466.113281 465.515625 L 0.859375 465.515625 Z M 0.859375 0.265625 " clip-rule="nonzero"/></clipPath><clipPath id="73e8f394ca"><path d="M 233.59375 0.265625 C 105.058594 0.265625 0.859375 104.464844 0.859375 232.996094 C 0.859375 361.53125 105.058594 465.726562 233.59375 465.726562 C 362.125 465.726562 466.324219 361.53125 466.324219 232.996094 C 466.324219 104.464844 362.125 0.265625 233.59375 0.265625 Z M 233.59375 0.265625 " clip-rule="nonzero"/></clipPath><clipPath id="a77e4565fa"><path d="M 328.550781 0.265625 L 794.019531 0.265625 L 794.019531 465.734375 L 328.550781 465.734375 Z M 328.550781 0.265625 " clip-rule="nonzero"/></clipPath><clipPath id="c001211336"><path d="M 561.285156 0.265625 C 432.75 0.265625 328.550781 104.464844 328.550781 233 C 328.550781 361.535156 432.75 465.734375 561.285156 465.734375 C 689.820312 465.734375 794.019531 361.535156 794.019531 233 C 794.019531 104.464844 689.820312 0.265625 561.285156 0.265625 Z M 561.285156 0.265625 " clip-rule="nonzero"/></clipPath><clipPath id="2a5a310534"><path d="M 328.550781 0.265625 L 793.800781 0.265625 L 793.800781 465.515625 L 328.550781 465.515625 Z M 328.550781 0.265625 " clip-rule="nonzero"/></clipPath><clipPath id="3397da1ecc"><path d="M 561.28125 0.265625 C 432.746094 0.265625 328.550781 104.464844 328.550781 232.996094 C 328.550781 361.53125 432.746094 465.726562 561.28125 465.726562 C 689.816406 465.726562 794.011719 361.53125 794.011719 232.996094 C 794.011719 104.464844 689.816406 0.265625 561.28125 0.265625 Z M 561.28125 0.265625 " clip-rule="nonzero"/></clipPath><clipPath id="24ea3a237c"><path d="M 0.367188 0 L 482 0 L 482 466 L 0.367188 466 Z M 0.367188 0 " clip-rule="nonzero"/></clipPath><mask id="aeed0b8957"><g filter="url(#12ce5f483b)"><rect x="-79.488" width="953.856" fill="#000000" y="-46.649999" height="559.799983" fill-opacity="0.5"/></g></mask><clipPath id="310de662e6"><path d="M 0.859375 0.265625 L 466.328125 0.265625 L 466.328125 465.734375 L 0.859375 465.734375 Z M 0.859375 0.265625 " clip-rule="nonzero"/></clipPath><clipPath id="a52d258e25"><path d="M 233.59375 0.265625 C 105.058594 0.265625 0.859375 104.464844 0.859375 233 C 0.859375 361.535156 105.058594 465.734375 233.59375 465.734375 C 362.128906 465.734375 466.328125 361.535156 466.328125 233 C 466.328125 104.464844 362.128906 0.265625 233.59375 0.265625 Z M 233.59375 0.265625 " clip-rule="nonzero"/></clipPath><clipPath id="016c6967d2"><path d="M 0.859375 0.265625 L 466.113281 0.265625 L 466.113281 465.515625 L 0.859375 465.515625 Z M 0.859375 0.265625 " clip-rule="nonzero"/></clipPath><clipPath id="69e197cd8c"><path d="M 233.59375 0.265625 C 105.058594 0.265625 0.859375 104.464844 0.859375 232.996094 C 0.859375 361.53125 105.058594 465.726562 233.59375 465.726562 C 362.125 465.726562 466.324219 361.53125 466.324219 232.996094 C 466.324219 104.464844 362.125 0.265625 233.59375 0.265625 Z M 233.59375 0.265625 " clip-rule="nonzero"/></clipPath><clipPath id="dbe45fd39f"><rect x="0" width="482" y="0" height="466"/></clipPath><clipPath id="30a4f9ab80"><path d="M 0.859375 0.265625 L 466.113281 0.265625 L 466.113281 465.515625 L 0.859375 465.515625 Z M 0.859375 0.265625 " clip-rule="nonzero"/></clipPath><clipPath id="d0ba5f2a98"><path d="M 233.59375 0.265625 C 105.058594 0.265625 0.859375 104.464844 0.859375 232.996094 C 0.859375 361.53125 105.058594 465.726562 233.59375 465.726562 C 362.125 465.726562 466.324219 361.53125 466.324219 232.996094 C 466.324219 104.464844 362.125 0.265625 233.59375 0.265625 Z M 233.59375 0.265625 " clip-rule="nonzero"/></clipPath><clipPath id="332cfd2d98"><path d="M 328.550781 0.265625 L 793.800781 0.265625 L 793.800781 465.515625 L 328.550781 465.515625 Z M 328.550781 0.265625 " clip-rule="nonzero"/></clipPath><clipPath id="6d54c159a3"><path d="M 561.28125 0.265625 C 432.746094 0.265625 328.550781 104.464844 328.550781 232.996094 C 328.550781 361.53125 432.746094 465.726562 561.28125 465.726562 C 689.816406 465.726562 794.011719 361.53125 794.011719 232.996094 C 794.011719 104.464844 689.816406 0.265625 561.28125 0.265625 Z M 561.28125 0.265625 " clip-rule="nonzero"/></clipPath></defs><g clip-path="url(#ed0282664b)"><g clip-path="url(#645142aa62)"><path fill="#ffffff" d="M 0.859375 0.265625 L 466.328125 0.265625 L 466.328125 465.734375 L 0.859375 465.734375 Z M 0.859375 0.265625 " fill-opacity="1" fill-rule="nonzero"/></g></g><g clip-path="url(#0648b9dd71)"><g clip-path="url(#73e8f394ca)"><path stroke-linecap="butt" transform="matrix(0.749197, 0, 0, 0.749197, 0.860972, 0.266089)" fill="none" stroke-linejoin="miter" d="M 310.642988 -0.000619382 C 139.07908 -0.000619382 -0.00213115 139.080591 -0.00213115 310.639285 C -0.00213115 482.203193 139.07908 621.27919 310.642988 621.27919 C 482.201682 621.27919 621.282892 482.203193 621.282892 310.639285 C 621.282892 139.080591 482.201682 -0.000619382 310.642988 -0.000619382 Z M 310.642988 -0.000619382 " stroke="#000000" stroke-width="8" stroke-opacity="1" stroke-miterlimit="4"/></g></g><g clip-path="url(#a77e4565fa)"><g clip-path="url(#c001211336)"><path fill="#ec0054" d="M 328.550781 0.265625 L 794.019531 0.265625 L 794.019531 465.734375 L 328.550781 465.734375 Z M 328.550781 0.265625 " fill-opacity="1" fill-rule="nonzero"/></g></g><g clip-path="url(#2a5a310534)"><g clip-path="url(#3397da1ecc)"><path stroke-linecap="butt" transform="matrix(0.749197, 0, 0, 0.749197, 328.550679, 0.266089)" fill="none" stroke-linejoin="miter" d="M 310.640041 -0.000619382 C 139.076133 -0.000619382 0.000136296 139.080591 0.000136296 310.639285 C 0.000136296 482.203193 139.076133 621.27919 310.640041 621.27919 C 482.203949 621.27919 621.279946 482.203193 621.279946 310.639285 C 621.279946 139.080591 482.203949 -0.000619382 310.640041 -0.000619382 Z M 310.640041 -0.000619382 " stroke="#000000" stroke-width="8" stroke-opacity="1" stroke-miterlimit="4"/></g></g><g clip-path="url(#24ea3a237c)"><g mask="url(#aeed0b8957)"><g transform="matrix(1, 0, 0, 1, 0.000000000000000056, 0)"><g clip-path="url(#dbe45fd39f)"><g clip-path="url(#310de662e6)"><g clip-path="url(#a52d258e25)"><path fill="#ffffff" d="M 0.859375 0.265625 L 466.328125 0.265625 L 466.328125 465.734375 L 0.859375 465.734375 Z M 0.859375 0.265625 " fill-opacity="1" fill-rule="nonzero"/></g></g><g clip-path="url(#016c6967d2)"><g clip-path="url(#69e197cd8c)"><path stroke-linecap="butt" transform="matrix(0.749197, 0, 0, 0.749197, 0.860972, 0.266089)" fill="none" stroke-linejoin="miter" d="M 310.642988 -0.000619382 C 139.07908 -0.000619382 -0.00213115 139.080591 -0.00213115 310.639285 C -0.00213115 482.203193 139.07908 621.27919 310.642988 621.27919 C 482.201682 621.27919 621.282892 482.203193 621.282892 310.639285 C 621.282892 139.080591 482.201682 -0.000619382 310.642988 -0.000619382 Z M 310.642988 -0.000619382 " stroke="#000000" stroke-width="8" stroke-opacity="1" stroke-miterlimit="4"/></g></g></g></g></g></g><g clip-path="url(#30a4f9ab80)"><g clip-path="url(#d0ba5f2a98)"><path stroke-linecap="butt" transform="matrix(0.749197, 0, 0, 0.749197, 0.860972, 0.266089)" fill="none" stroke-linejoin="miter" d="M 310.642988 -0.000619382 C 139.07908 -0.000619382 -0.00213115 139.080591 -0.00213115 310.639285 C -0.00213115 482.203193 139.07908 621.27919 310.642988 621.27919 C 482.201682 621.27919 621.282892 482.203193 621.282892 310.639285 C 621.282892 139.080591 482.201682 -0.000619382 310.642988 -0.000619382 Z M 310.642988 -0.000619382 " stroke="#000000" stroke-width="8" stroke-opacity="1" stroke-miterlimit="4"/></g></g><g clip-path="url(#332cfd2d98)"><g clip-path="url(#6d54c159a3)"><path stroke-linecap="butt" transform="matrix(0.749197, 0, 0, 0.749197, 328.550679, 0.266089)" fill="none" stroke-linejoin="miter" d="M 310.640041 -0.000619382 C 139.076133 -0.000619382 0.000136296 139.080591 0.000136296 310.639285 C 0.000136296 482.203193 139.076133 621.27919 310.640041 621.27919 C 482.203949 621.27919 621.279946 482.203193 621.279946 310.639285 C 621.279946 139.080591 482.203949 -0.000619382 310.640041 -0.000619382 Z M 310.640041 -0.000619382 " stroke="#000000" stroke-width="8" stroke-opacity="1" stroke-miterlimit="4"/></g></g></svg>